<svg xmlns="http://www.w3.org/2000/svg" width="519.844" height="114.474" viewBox="0 0 519.844 114.474"><g transform="translate(-252.079 -326.763)"><path d="M825.015.579a38.494,38.494,0,0,0,25.326-8.973,6.6,6.6,0,0,0,2.6-4.631,6.831,6.831,0,0,0-1.592-5.21,6.432,6.432,0,0,0-4.631-2.46,6.5,6.5,0,0,0-5.065,1.592,25.9,25.9,0,0,1-16.643,5.789,24.8,24.8,0,0,1-18.524-7.67,24.8,24.8,0,0,1-7.67-18.524,25.343,25.343,0,0,1,7.67-18.669,25.349,25.349,0,0,1,18.524-7.67,26.014,26.014,0,0,1,16.064,5.5,26.128,26.128,0,0,1,9.262,13.893H825.015a6.892,6.892,0,0,0-4.92,2.026,6.892,6.892,0,0,0-2.026,4.92,6.892,6.892,0,0,0,2.026,4.92,6.892,6.892,0,0,0,4.92,2.026H858.3a6.562,6.562,0,0,0,4.776-2.026,6.481,6.481,0,0,0,2.171-4.92A38.693,38.693,0,0,0,853.38-67.874a38.693,38.693,0,0,0-28.365-11.867,38.693,38.693,0,0,0-28.365,11.867,38.561,38.561,0,0,0-11.722,28.365,38.561,38.561,0,0,0,11.722,28.365A38.561,38.561,0,0,0,825.015.579Z" transform="translate(-532.848 440.368)" fill="#2f99ed" stroke="#2f99ed" stroke-miterlimit="2" stroke-width="0"/><path d="M912.148-99.133a6.657,6.657,0,0,0,5.065-2.026,7.105,7.105,0,0,0,2.171-5.21,6.788,6.788,0,0,0-2.171-5.065,6.788,6.788,0,0,0-5.065-2.171,28.512,28.512,0,0,0-20.984,8.683,28.744,28.744,0,0,0-8.683,20.984V-6.947a6.975,6.975,0,0,0,2.026,5.21,6.975,6.975,0,0,0,5.21,2.026,6.657,6.657,0,0,0,5.065-2.026,7.105,7.105,0,0,0,2.171-5.21V-63.532h14.472a6.335,6.335,0,0,0,4.631-1.881,6.438,6.438,0,0,0,1.881-4.631,6.97,6.97,0,0,0-1.881-4.631,6.97,6.97,0,0,0-4.631-1.881H896.952v-7.381a14.663,14.663,0,0,1,4.486-10.709,14.758,14.758,0,0,1,10.709-4.486Z" transform="translate(-526.818 440.368)" fill="#2f99ed" stroke="#2f99ed" stroke-miterlimit="2" stroke-width="0"/><path d="M966.949.579a38.561,38.561,0,0,0,28.365-11.722,38.693,38.693,0,0,0,11.867-28.365,38.693,38.693,0,0,0-11.867-28.365,38.693,38.693,0,0,0-28.365-11.867,38.693,38.693,0,0,0-28.365,11.867,38.561,38.561,0,0,0-11.722,28.365,38.561,38.561,0,0,0,11.722,28.365A38.561,38.561,0,0,0,966.949.579Zm0-66.426a25.914,25.914,0,0,1,18.669,7.67,25.914,25.914,0,0,1,7.67,18.669,25.349,25.349,0,0,1-7.67,18.524,25.343,25.343,0,0,1-18.669,7.67,24.8,24.8,0,0,1-18.524-7.67,24.8,24.8,0,0,1-7.67-18.524,25.343,25.343,0,0,1,7.67-18.669A25.349,25.349,0,0,1,966.949-65.848Z" transform="translate(-520.789 440.368)" fill="#2f99ed" stroke="#2f99ed" stroke-miterlimit="2" stroke-width="0"/><path d="M1092.533-66.716a36.1,36.1,0,0,0-28.365-13.025,39.478,39.478,0,0,0-20.261,5.21A36.121,36.121,0,0,0,1029.87-60.2a42.467,42.467,0,0,0-4.921,20.695,40.836,40.836,0,0,0,5.065,20.55,37.839,37.839,0,0,0,14.327,14.327,40.549,40.549,0,0,0,20.55,5.21c10.42,0,19.1-3.184,26.05-9.7a5.4,5.4,0,0,0,1.737-3.907c0-1.881-1.013-3.618-2.75-5.21a6.247,6.247,0,0,0-3.763-1.3,9.166,9.166,0,0,0-5.355,2.026c-4.052,3.473-9.407,5.065-15.919,5.065a25.9,25.9,0,0,1-13.459-3.473,24.131,24.131,0,0,1-9.117-9.552,29.515,29.515,0,0,1-3.184-14.038c0-8.1,2.315-14.761,6.947-19.682s10.565-7.525,18.09-7.525a25.722,25.722,0,0,1,9.7,1.881,22.406,22.406,0,0,1,7.96,5.644,7,7,0,0,0,5.644,2.6A5.632,5.632,0,0,0,1090.8-57.6c2.026-1.447,3.184-3.184,3.184-5.355a6.1,6.1,0,0,0-1.447-3.763Z" transform="translate(-514.758 440.368)" fill="#2f99ed" stroke="#2f99ed" stroke-miterlimit="2" stroke-width="0"/><path d="M1181.327-79.451a7.105,7.105,0,0,0-5.21,2.171,6.657,6.657,0,0,0-2.026,5.065V-36.18a21.863,21.863,0,0,1-6.657,15.919,21.539,21.539,0,0,1-15.919,6.657,21.538,21.538,0,0,1-15.919-6.657,21.732,21.732,0,0,1-6.512-15.919V-72.215a6.788,6.788,0,0,0-2.171-5.065,6.789,6.789,0,0,0-5.065-2.171,7.105,7.105,0,0,0-5.21,2.171,6.657,6.657,0,0,0-2.026,5.065V-36.18a35.486,35.486,0,0,0,10.709,26.194A35.617,35.617,0,0,0,1151.515.868a35.85,35.85,0,0,0,26.194-10.854,35.617,35.617,0,0,0,10.854-26.194V-72.215a6.788,6.788,0,0,0-2.171-5.065,6.789,6.789,0,0,0-5.065-2.171Z" transform="translate(-508.728 440.368)" fill="#2f99ed" stroke="#2f99ed" stroke-miterlimit="2" stroke-width="0"/><path d="M1259.281-76.7a43.937,43.937,0,0,0-16.787-3.039,42.782,42.782,0,0,0-14.472,2.46,26.367,26.367,0,0,0-11,7.381,17.655,17.655,0,0,0-4.2,12.012c0,11.722,9.262,19.392,27.786,22.866,7.091,1.447,12.156,3.039,15.2,5.065,2.894,2.026,4.486,4.486,4.486,7.381,0,3.184-1.592,5.644-4.631,7.381-3.039,1.881-7.236,2.75-12.735,2.75a31.272,31.272,0,0,1-11.722-2.171,20.372,20.372,0,0,1-8.249-5.355,7.832,7.832,0,0,0-5.5-2.6,8.743,8.743,0,0,0-5.065,2.026,6.509,6.509,0,0,0-2.894,5.644,5.8,5.8,0,0,0,1.881,4.486c3.184,3.329,7.815,5.934,13.6,7.96A55.267,55.267,0,0,0,1243.506.579a41.922,41.922,0,0,0,16.787-3.039A24.521,24.521,0,0,0,1271-11a22.2,22.2,0,0,0,3.618-12.156,18.635,18.635,0,0,0-6.657-14.617c-4.342-3.763-11.867-6.657-22.287-8.828a58.565,58.565,0,0,1-11.722-3.184c-2.75-1.158-4.631-2.316-5.5-3.618a7.651,7.651,0,0,1-1.447-4.92c0-2.6,1.3-4.776,4.2-6.223a24.306,24.306,0,0,1,11-2.316,32.815,32.815,0,0,1,9.841,1.447,22.666,22.666,0,0,1,7.67,4.631,9.514,9.514,0,0,0,6.8,2.75,6.378,6.378,0,0,0,4.052-1.158,5.724,5.724,0,0,0,2.46-4.486,8.314,8.314,0,0,0-1.881-4.631,30.339,30.339,0,0,0-11.867-8.394Z" transform="translate(-502.698 440.368)" fill="#2f99ed" stroke="#2f99ed" stroke-miterlimit="2" stroke-width="0"/></g></svg>